<svg xmlns="http://www.w3.org/2000/svg" viewBox="0 0 1024 1024" role="img" aria-labelledby="title">
  <title>清音：青花瓷盘</title>
  <rect width="1024" height="1024" fill="#1A4B8C"/>
  <circle cx="512" cy="512" r="430" fill="#F8F4EC"/>
  <circle cx="512" cy="512" r="380" fill="none" stroke="#2A6CB8" stroke-width="28"/>
  <circle cx="512" cy="512" r="320" fill="none" stroke="#6A9E96" stroke-width="10" stroke-dasharray="4 27" stroke-linecap="round"/>
  <g fill="none" stroke="#1A4B8C" stroke-width="20" stroke-linecap="round" stroke-linejoin="round">
    <path d="M280 372c42-48 91-70 147-66-12 49-41 87-91 114 51 9 88 38 111 87-55 10-104-5-148-45"/>
    <path d="M744 372c-42-48-91-70-147-66 12 49 41 87 91 114-51 9-88 38-111 87 55 10 104-5 148-45"/>
    <path d="M280 652c42 48 91 70 147 66-12-49-41-87-91-114 51-9 88-38 111-87-55-10-104 5-148 45"/>
    <path d="M744 652c-42 48-91 70-147 66 12-49 41-87 91-114-51-9-88-38-111-87 55-10 104 5 148 45"/>
  </g>
  <circle cx="512" cy="512" r="167" fill="#D6E4F2" stroke="#1A4B8C" stroke-width="18"/>
  <path d="M454 424v184c0 29 23 44 49 36 19-6 30-23 30-41V405l137-34v170c0 29 23 44 49 36 19-6 30-23 30-41V337l-266 66v154c-15-12-35-16-54-10-19 6-30 23-30 41 0 19 11 35 28 40" fill="#1A4B8C"/>
  <circle cx="512" cy="512" r="14" fill="#F8F4EC"/>
</svg>
